Patient4_TMGait_0pt5_02_left_41_EMG.mot
version=1
nRows=16
nColumns=33
inDegrees=no
endheader
time	1LAddLong	2LGlutMax	3LGlutMed	4LIliopsoas	5LSemiMemb	6LBicFemLong	7LRecFem	8LVastMed	9LVastLat	10LGasMed	11LTibAnt	12lTibPost	13LPeroneusLong	14LSol	15LExtDigLong	16LFlexDigLong	17RAddLong	18RGlutMax	19RGlutMed	20RIliopsoas	21RSemiMemb	22RBicFemLong	23RRecFem	24RVastMed	25RVastLat	26RGasMed	27RTibAnt	28RTibPost	29RPeroneusLong	30RSol	31RExtDigLong	32RFlexDigLong
54.255	0.005646	-0.037842	-0.052185	0.018005	0.001526	0.028076	-0.035706	0.003967	0.15152	-0.10193	0.018158	0.000153	0.097351	0.21927	-0.02243	0.01297	0.006409	-0.13199	-0.050507	0.091858	-0.047913	0.044403	-0.21942	-0.046387	-0.14664	-0.032959	0.098419	-0.00351	1.1298	-0.28488	-0.005493	0.012817
54.256	0.006409	-0.044098	-0.057068	0.013275	-0.006409	0.039215	-0.026093	0.006866	0.15106	-0.094299	-0.001526	-0.005035	0.061798	0.21973	-0.024109	0.009766	-0.000305	-0.19928	-0.32913	0.052185	-0.02594	0.11169	-0.36957	-0.12695	0.033264	0.014801	0.11032	-0.001831	-0.8699	-0.22354	-0.002441	0.012512
54.257	0.003967	-0.089874	-0.054321	0.003662	-0.009766	0.029755	-0.049286	0.009155	0.14801	-0.10681	0.005188	0.00473	0.011902	0.16373	-0.015411	0.012054	-0.011444	-0.24124	-0.42252	0.078125	-0.002441	0.14755	-0.40863	-0.10986	0.15335	0.087128	-0.2211	-0.001678	-1.2004	-0.21484	-0.002899	0.014496
54.258	0.011444	-0.066528	-0.055389	0.013885	-0.024872	0.009766	-0.029602	0.00885	0.1503	-0.11383	0.004883	-0.000305	-0.00824	0.046692	-0.00412	0.003357	0.015564	-0.21027	0.0177	0.050812	-0.019989	0.096741	-0.12268	-0.019836	0.22812	0.042419	0.26504	-0.006256	-1.8585	-0.1889	-0.00061	0.012512
54.259	0.004272	-0.050201	-0.048065	0.008087	0.013428	0.02533	-0.02243	0.009308	0.15091	-0.11597	0.020905	0.002441	0.0177	-0.081177	0.013733	0.007172	0.022888	-0.19836	0.47974	0.055847	-0.018005	0.069885	0.081635	0.097809	0.28717	0.013733	0.56137	-0.003357	0.36377	-0.15335	-0.006561	0.004272
54.26	0.008087	-0.075989	-0.060883	0.016785	-0.045319	-0.003052	-0.051575	0.007019	0.15411	-0.049286	0.014954	0.003052	-0.013123	-0.1236	0.014801	0.011139	0.023499	-0.20981	0.06134	0.061798	-0.023193	0.053253	0.075378	0.069733	0.25879	0.00351	1.0046	-0.003357	0.053253	0.022278	-0.002136	0.000916
54.261	0.011444	-0.078278	-0.048828	0.024872	-0.033264	-0.013733	-0.053101	0.00885	0.14496	0.020752	0.019836	0.00061	-0.002289	0.055847	0.022125	0.007782	0.011749	-0.18204	-0.36728	0.071106	-0.022278	0.037231	0.091248	0.068054	0.25269	0.005951	0.79544	-0.005341	0.78766	-0.017395	0.000763	0.012512
54.262	0.012054	-0.076904	-0.04303	0.020905	-0.046539	-0.007935	-0.046234	0.009918	0.14099	0.057068	-0.016937	0.005798	0.02182	0.004272	0.010834	0.008698	0.020752	-0.12253	-0.52414	0.032043	-0.026398	0.044556	0.099792	0.1355	0.25742	0.001831	0.084686	-0.005798	0.98175	-0.02533	-0.002899	-0.001831
54.263	0.01236	-0.076141	-0.055237	0.004425	0.015564	0.003204	-0.045319	0.010376	0.13306	0.046082	0.006409	0.00351	0.038147	-0.1384	-0.000153	-0.016022	0.028229	-0.12711	-0.18326	-0.003357	-0.035095	0.034637	0.18662	0.13916	0.1062	-0.000305	-0.168	-0.00824	1.3315	-0.027771	-0.003967	0.002136
54.264	0.005188	-0.098114	-0.050507	0.000153	0.06485	0.020447	-0.046082	-0.001221	0.13901	0.018921	0.008087	0.006104	0.066376	-0.17364	-0.013733	-0.024109	0.032806	-0.12283	0.16861	0.031891	-0.024109	0.030518	0.011902	0.29831	-0.007324	0.044098	-0.46707	-0.002441	2.2868	-0.19165	-0.001831	-0.004578
54.265	-0.004578	-0.1033	-0.033264	0.016174	0.041504	0.026703	-0.034637	0.003357	0.12802	-0.010986	0.012817	0.006409	0.043335	-0.09079	-0.002441	0.001526	0.032959	-0.15595	0.25696	0.010529	-0.025024	0.046082	-0.13886	0.16541	0.05722	0.039215	-0.64011	-0.005035	1.523	-0.20111	-0.000916	0.007629
54.266	0.012512	-0.09903	-0.010681	0.01236	0.039063	0.030518	-0.025024	0.010834	0.12268	-0.031891	0.016327	0.000916	0.009308	-0.095215	0.003662	0.007782	0.016937	-0.11887	0.19669	-0.033722	-0.02594	0.029602	-0.26077	0.11917	0.20432	0.041046	-0.7225	-0.001373	-1.4453	-0.21255	-0.000916	0.003357
54.267	0.009308	-0.097504	-0.01358	0.027161	0.041199	0.018768	-0.036163	0.011597	0.12482	-0.049591	0.011597	0.006104	0.032043	-0.10681	-0.011749	0.013885	0.024109	-0.088806	0.49713	-0.061646	-0.018616	0.031433	-0.040741	0.022736	0.22125	-0.001678	-0.77133	-0.001526	-0.85007	-0.080566	-0.000458	0.004578
54.268	0.011292	-0.12207	-0.051727	0.008545	0.011139	0.021515	-0.041504	0.003662	0.12924	-0.057373	0.013885	0.004272	0.10757	-0.055847	0.003357	-0.000305	0.018921	-0.053864	-0.03067	-0.058594	-0.019989	0.062103	0.048523	-0.036011	0.18097	-0.039673	-0.20416	-0.005493	-0.31601	0.20218	0.001221	0.00824
54.269	0.00946	-0.12787	-0.06897	0.012817	0.011292	0.018616	-0.047302	-0.000458	0.12787	-0.040894	0.003204	0.009003	0.11078	-0.043793	-0.00351	-0.009766	-0.008698	-0.10361	-0.39764	-0.071259	-0.015106	0.072632	-0.023956	0.042877	0.073547	-0.016327	0.103	0.00061	-0.56397	0.34592	-0.001678	0.000763
54.27	0.008392	-0.13672	-0.075531	0.014343	0.019226	0.019226	-0.050049	0.010986	0.11047	-0.024414	0.002289	-0.000763	0.12009	-0.007629	0.000153	-0.000153	0.001221	-0.017853	-0.39414	-0.1178	-0.017242	0.041962	-0.082397	0.022125	-0.06073	-0.005035	0.1535	-0.003357	-0.12405	0.12161	-0.002594	0.006409
